<mxfile host="app.diagrams.net" modified="2021-09-03T02:19:46.626Z" agent="5.0 (Macintosh; Intel Mac OS X 10_15_7) AppleWebKit/537.36 (KHTML, like Gecko) Chrome/92.0.4515.159 Safari/537.36" etag="yreyc5uBkudg0MR0kQIc" version="15.0.3" type="github">
  <diagram id="vZpP5Effxj41_VfFe3MK" name="Page-1">
    <mxGraphModel dx="1145" dy="841" grid="1" gridSize="10" guides="1" tooltips="1" connect="1" arrows="1" fold="1" page="1" pageScale="1" pageWidth="850" pageHeight="1100" math="0" shadow="0">
      <root>
        <mxCell id="0" />
        <mxCell id="1" parent="0" />
        <mxCell id="OfORN7NUINiMixhZLZNA-1" value="T_CLAIM_CASE&lt;br&gt;case_id" style="rounded=1;whiteSpace=wrap;html=1;" vertex="1" parent="1">
          <mxGeometry x="60" y="160" width="120" height="60" as="geometry" />
        </mxCell>
        <mxCell id="OfORN7NUINiMixhZLZNA-2" value="T_CLAIM_POLICY" style="rounded=1;whiteSpace=wrap;html=1;" vertex="1" parent="1">
          <mxGeometry x="250" y="60" width="120" height="60" as="geometry" />
        </mxCell>
        <mxCell id="OfORN7NUINiMixhZLZNA-3" value="" style="endArrow=classic;html=1;entryX=1;entryY=0;entryDx=0;entryDy=0;exitX=0;exitY=1;exitDx=0;exitDy=0;" edge="1" parent="1" source="OfORN7NUINiMixhZLZNA-2" target="OfORN7NUINiMixhZLZNA-1">
          <mxGeometry width="50" height="50" relative="1" as="geometry">
            <mxPoint x="460" y="460" as="sourcePoint" />
            <mxPoint x="510" y="410" as="targetPoint" />
          </mxGeometry>
        </mxCell>
        <mxCell id="OfORN7NUINiMixhZLZNA-4" value="T_CONTRACT_MASTER&lt;br&gt;policy_id" style="rounded=1;whiteSpace=wrap;html=1;" vertex="1" parent="1">
          <mxGeometry x="430" y="160" width="160" height="60" as="geometry" />
        </mxCell>
        <mxCell id="OfORN7NUINiMixhZLZNA-5" value="" style="endArrow=classic;html=1;entryX=0;entryY=0;entryDx=0;entryDy=0;exitX=1;exitY=1;exitDx=0;exitDy=0;" edge="1" parent="1" source="OfORN7NUINiMixhZLZNA-2" target="OfORN7NUINiMixhZLZNA-4">
          <mxGeometry width="50" height="50" relative="1" as="geometry">
            <mxPoint x="260" y="130" as="sourcePoint" />
            <mxPoint x="190" y="180" as="targetPoint" />
          </mxGeometry>
        </mxCell>
        <mxCell id="OfORN7NUINiMixhZLZNA-6" value="T_CONTRACT_PRODUCT&lt;br&gt;item_id" style="rounded=1;whiteSpace=wrap;html=1;" vertex="1" parent="1">
          <mxGeometry x="430" y="280" width="160" height="60" as="geometry" />
        </mxCell>
        <mxCell id="OfORN7NUINiMixhZLZNA-7" value="T_PRODUCT_LIFE&lt;br&gt;product_id" style="rounded=1;whiteSpace=wrap;html=1;" vertex="1" parent="1">
          <mxGeometry x="680" y="280" width="160" height="60" as="geometry" />
        </mxCell>
        <mxCell id="OfORN7NUINiMixhZLZNA-8" value="" style="endArrow=classic;html=1;entryX=0.5;entryY=1;entryDx=0;entryDy=0;exitX=0.5;exitY=0;exitDx=0;exitDy=0;" edge="1" parent="1" source="OfORN7NUINiMixhZLZNA-6" target="OfORN7NUINiMixhZLZNA-4">
          <mxGeometry width="50" height="50" relative="1" as="geometry">
            <mxPoint x="380" y="130" as="sourcePoint" />
            <mxPoint x="440" y="170" as="targetPoint" />
          </mxGeometry>
        </mxCell>
        <mxCell id="OfORN7NUINiMixhZLZNA-9" value="" style="endArrow=classic;html=1;entryX=0;entryY=0.5;entryDx=0;entryDy=0;exitX=1;exitY=0.5;exitDx=0;exitDy=0;" edge="1" parent="1" source="OfORN7NUINiMixhZLZNA-6" target="OfORN7NUINiMixhZLZNA-7">
          <mxGeometry width="50" height="50" relative="1" as="geometry">
            <mxPoint x="520" y="290" as="sourcePoint" />
            <mxPoint x="520" y="230" as="targetPoint" />
          </mxGeometry>
        </mxCell>
        <mxCell id="OfORN7NUINiMixhZLZNA-10" value="T_LIABILITY&lt;br&gt;liab_id" style="rounded=1;whiteSpace=wrap;html=1;" vertex="1" parent="1">
          <mxGeometry x="680" y="430" width="160" height="60" as="geometry" />
        </mxCell>
        <mxCell id="OfORN7NUINiMixhZLZNA-11" value="T_CONTRACT_INVEST&lt;br&gt;item_id" style="rounded=1;whiteSpace=wrap;html=1;" vertex="1" parent="1">
          <mxGeometry x="430" y="380" width="160" height="60" as="geometry" />
        </mxCell>
        <mxCell id="OfORN7NUINiMixhZLZNA-12" value="" style="endArrow=classic;startArrow=classic;html=1;entryX=0.5;entryY=1;entryDx=0;entryDy=0;exitX=0.5;exitY=0;exitDx=0;exitDy=0;dashed=1;fillColor=#d5e8d4;strokeColor=#82b366;" edge="1" parent="1" source="OfORN7NUINiMixhZLZNA-11" target="OfORN7NUINiMixhZLZNA-6">
          <mxGeometry width="50" height="50" relative="1" as="geometry">
            <mxPoint x="460" y="440" as="sourcePoint" />
            <mxPoint x="510" y="390" as="targetPoint" />
          </mxGeometry>
        </mxCell>
      </root>
    </mxGraphModel>
  </diagram>
</mxfile>
